<svg id="Capa_1" data-name="Capa 1" xmlns="http://www.w3.org/2000/svg" viewBox="0 0 214.25 214.25"><defs><style>.cls-1{fill:none;}.cls-2{fill:#5bc5f2;}.cls-3{fill:#009fe3;}.cls-4{fill:#a1daf8;}</style></defs><title>swappp</title><path class="cls-1" d="M328.78,329a106.32,106.32,0,0,0-11.34,27.25H524.75A106.34,106.34,0,0,0,513.4,329Z" transform="translate(-313.97 -276.25)"/><path class="cls-1" d="M328.34,437H513.85a106.67,106.67,0,0,0,11-26.75H317.37A106.3,106.3,0,0,0,328.34,437Z" transform="translate(-313.97 -276.25)"/><path class="cls-2" d="M421.09,276.25A107.08,107.08,0,0,0,328.78,329H513.4A107.05,107.05,0,0,0,421.09,276.25Z" transform="translate(-313.97 -276.25)"/><path class="cls-3" d="M314,383.38a107.24,107.24,0,0,0,3.4,26.87H524.82a107.83,107.83,0,0,0-.07-54H317.44A107.3,107.3,0,0,0,314,383.38Z" transform="translate(-313.97 -276.25)"/><path class="cls-4" d="M421.09,490.5A107.09,107.09,0,0,0,513.85,437H328.34A107.09,107.09,0,0,0,421.09,490.5Z" transform="translate(-313.97 -276.25)"/></svg>