<svg id="Capa_1" data-name="Capa 1" xmlns="http://www.w3.org/2000/svg" viewBox="0 0 589.36 214.25"><defs><style>.cls-1{fill:none;}.cls-2{fill:#5bc5f2;}.cls-3{fill:#009fe3;}.cls-4{fill:#a1daf8;}.cls-5{fill:#333;}</style></defs><title>swappp-blanco</title><path class="cls-1" d="M328.78,329a106,106,0,0,0-11.34,27.25H524.66A106.34,106.34,0,0,0,513.31,329Z" transform="translate(-313.97 -276.25)"/><path class="cls-1" d="M328.33,437H513.76a106.65,106.65,0,0,0,11-26.75H317.37A106.65,106.65,0,0,0,328.33,437Z" transform="translate(-313.97 -276.25)"/><path class="cls-2" d="M421.05,276.25A107,107,0,0,0,328.78,329H513.31A107,107,0,0,0,421.05,276.25Z" transform="translate(-313.97 -276.25)"/><path class="cls-3" d="M314,383.38a107.24,107.24,0,0,0,3.4,26.87H524.72a108,108,0,0,0-.06-54H317.44A107.3,107.3,0,0,0,314,383.38Z" transform="translate(-313.97 -276.25)"/><path class="cls-4" d="M421.05,490.5A107,107,0,0,0,513.76,437H328.33A107,107,0,0,0,421.05,490.5Z" transform="translate(-313.97 -276.25)"/><path class="cls-5" d="M594.57,392.25a11.9,11.9,0,0,0-4.27-9.64q-4.27-3.54-15.64-6.73t-16.59-7q-7.44-5.32-7.44-14a16.4,16.4,0,0,1,6.92-13.66q6.9-5.25,17.67-5.25a29.41,29.41,0,0,1,13,2.81,21.36,21.36,0,0,1,8.92,7.85,20.62,20.62,0,0,1,3.17,11.22h-6.23A15.4,15.4,0,0,0,589,345.81q-5.13-4.56-13.77-4.56-8.4,0-13.38,3.75a11.73,11.73,0,0,0-5,9.8,11.09,11.09,0,0,0,4.47,9.12q4.47,3.52,14.33,6.22t14.93,5.58a21.38,21.38,0,0,1,7.64,6.92,17.29,17.29,0,0,1,2.56,9.5A16.56,16.56,0,0,1,593.89,406q-6.92,5.22-18.22,5.23a35.75,35.75,0,0,1-14.2-2.77,21.68,21.68,0,0,1-9.81-7.75,20,20,0,0,1-3.34-11.41h6.18a14.61,14.61,0,0,0,5.79,12.22q5.78,4.47,15.38,4.48,8.54,0,13.72-3.78A11.79,11.79,0,0,0,594.57,392.25Z" transform="translate(-313.97 -276.25)"/><path class="cls-5" d="M625.74,397.73l.9,4.67,1.21-4.92,13.07-41.65h5.13L659,397.12l1.4,5.74,1.16-5.28,11.16-41.75h6.23l-15.83,54.42H658L644,367.1l-.66-3-.65,3L629,410.25h-5.12L608,355.83h6.19Z" transform="translate(-313.97 -276.25)"/><path class="cls-5" d="M724.67,410.25a28.66,28.66,0,0,1-1.16-7.59,21,21,0,0,1-8.06,6.36,24.76,24.76,0,0,1-10.39,2.24q-7.83,0-12.69-4.38a14.26,14.26,0,0,1-4.85-11.06,14.57,14.57,0,0,1,6.61-12.58q6.61-4.62,18.42-4.62h10.91v-6.19q0-5.83-3.59-9.18t-10.48-3.34A16.39,16.39,0,0,0,699,363.13a9.54,9.54,0,0,0-4.12,7.74l-6-.05q0-6.48,6-11.24a23.2,23.2,0,0,1,14.83-4.75q9.09,0,14.35,4.55t5.41,12.7v25.75q0,7.89,1.65,11.82v.6Zm-18.9-4.33A20.23,20.23,0,0,0,716.55,403a17.18,17.18,0,0,0,6.91-7.8v-12H712.71q-9,.11-14.08,3.3a9.87,9.87,0,0,0-5.08,8.77,9.72,9.72,0,0,0,3.4,7.6A12.77,12.77,0,0,0,705.77,405.92Z" transform="translate(-313.97 -276.25)"/><path class="cls-5" d="M789.22,383.59q0,12.74-5.63,20.2a17.94,17.94,0,0,1-15.08,7.47q-11.16,0-17.1-7.85v27.76h-6V355.83H751l.3,7.7q5.88-8.7,17-8.7,9.76,0,15.31,7.39t5.56,20.52Zm-6-1q0-10.41-4.27-16.45a13.78,13.78,0,0,0-11.91-6,15.87,15.87,0,0,0-15.59,10.41v26.1a16,16,0,0,0,6.19,7.14,17.76,17.76,0,0,0,9.5,2.47,13.66,13.66,0,0,0,11.84-6.06Q783.19,394.06,783.18,382.54Z" transform="translate(-313.97 -276.25)"/><path class="cls-5" d="M846.27,383.59q0,12.74-5.63,20.2a17.92,17.92,0,0,1-15.08,7.47q-11.16,0-17.09-7.85v27.76h-6V355.83h5.58l.3,7.7q5.88-8.7,17-8.7,9.75,0,15.31,7.39t5.55,20.52Zm-6-1q0-10.41-4.27-16.45a13.78,13.78,0,0,0-11.92-6,15.85,15.85,0,0,0-15.58,10.41v26.1a15.94,15.94,0,0,0,6.18,7.14,17.78,17.78,0,0,0,9.51,2.47A13.64,13.64,0,0,0,836,400.12Q840.25,394.06,840.24,382.54Z" transform="translate(-313.97 -276.25)"/><path class="cls-5" d="M903.33,383.59q0,12.74-5.63,20.2a17.92,17.92,0,0,1-15.08,7.47q-11.16,0-17.09-7.85v27.76h-6V355.83h5.59l.3,7.7q5.88-8.7,17-8.7,9.75,0,15.31,7.39t5.55,20.52Zm-6-1q0-10.41-4.27-16.45a13.78,13.78,0,0,0-11.92-6,15.85,15.85,0,0,0-15.58,10.41v26.1a15.94,15.94,0,0,0,6.18,7.14,17.76,17.76,0,0,0,9.5,2.47,13.65,13.65,0,0,0,11.84-6.06Q897.3,394.06,897.3,382.54Z" transform="translate(-313.97 -276.25)"/></svg>