<svg id="Capa_1" data-name="Capa 1" xmlns="http://www.w3.org/2000/svg" viewBox="0 0 589.63 214.25"><defs><style>.cls-1{fill:none;}.cls-2{fill:#5bc5f2;}.cls-3{fill:#009fe3;}.cls-4{fill:#a1daf8;}.cls-5{fill:#ededed;}</style></defs><title>swappp-negro</title><path class="cls-1" d="M246.78,337a106.32,106.32,0,0,0-11.34,27.25H442.75A106.34,106.34,0,0,0,431.4,337Z" transform="translate(-231.97 -284.25)"/><path class="cls-1" d="M246.34,445H431.85a106.67,106.67,0,0,0,11-26.75H235.37A106.3,106.3,0,0,0,246.34,445Z" transform="translate(-231.97 -284.25)"/><path class="cls-2" d="M339.09,284.25A107.08,107.08,0,0,0,246.78,337H431.4A107.05,107.05,0,0,0,339.09,284.25Z" transform="translate(-231.97 -284.25)"/><path class="cls-3" d="M232,391.38a107.24,107.24,0,0,0,3.4,26.87H442.82a107.83,107.83,0,0,0-.07-54H235.44A107.3,107.3,0,0,0,232,391.38Z" transform="translate(-231.97 -284.25)"/><path class="cls-4" d="M339.09,498.5A107.09,107.09,0,0,0,431.85,445H246.34A107.09,107.09,0,0,0,339.09,498.5Z" transform="translate(-231.97 -284.25)"/><path class="cls-5" d="M512.7,400.25a11.88,11.88,0,0,0-4.28-9.64q-4.28-3.54-15.64-6.73t-16.6-7q-7.44-5.32-7.44-14a16.39,16.39,0,0,1,6.91-13.66q6.92-5.25,17.68-5.25a29.43,29.43,0,0,1,13.05,2.81,21.39,21.39,0,0,1,8.93,7.85,20.61,20.61,0,0,1,3.17,11.21h-6.24a15.39,15.39,0,0,0-5.13-12.08q-5.13-4.56-13.78-4.56-8.4,0-13.38,3.75a11.73,11.73,0,0,0-5,9.8,11.09,11.09,0,0,0,4.47,9.12q4.49,3.52,14.34,6.22t14.93,5.58a21.33,21.33,0,0,1,7.65,6.92,17.29,17.29,0,0,1,2.56,9.5A16.56,16.56,0,0,1,512,414q-6.91,5.22-18.23,5.23a35.8,35.8,0,0,1-14.21-2.77,21.68,21.68,0,0,1-9.81-7.75,20,20,0,0,1-3.34-11.41h6.18a14.61,14.61,0,0,0,5.79,12.22q5.78,4.47,15.39,4.48,8.54,0,13.73-3.78A11.79,11.79,0,0,0,512.7,400.25Z" transform="translate(-231.97 -284.25)"/><path class="cls-5" d="M543.88,405.73l.9,4.67,1.21-4.92,13.08-41.65h5.13l12.92,41.29,1.41,5.74,1.16-5.28,11.16-41.75h6.24l-15.85,54.42h-5.13l-14-43.15-.65-3-.65,3-13.73,43.1H542l-15.8-54.42h6.19Z" transform="translate(-231.97 -284.25)"/><path class="cls-5" d="M642.85,418.25a28.32,28.32,0,0,1-1.15-7.59,21,21,0,0,1-8.08,6.36,24.72,24.72,0,0,1-10.38,2.24q-7.85,0-12.7-4.38a14.23,14.23,0,0,1-4.85-11.06,14.57,14.57,0,0,1,6.61-12.58q6.62-4.62,18.43-4.62h10.92v-6.19q0-5.83-3.6-9.18t-10.49-3.34a16.39,16.39,0,0,0-10.41,3.22,9.54,9.54,0,0,0-4.12,7.74l-6-.05q0-6.48,6-11.24a23.23,23.23,0,0,1,14.84-4.75q9.09,0,14.35,4.55t5.41,12.7v25.75q0,7.89,1.66,11.82v.6Zm-18.91-4.33A20.24,20.24,0,0,0,634.73,411a17.21,17.21,0,0,0,6.92-7.8v-12H630.88q-9,.11-14.08,3.3a9.89,9.89,0,0,0-5.08,8.77,9.72,9.72,0,0,0,3.4,7.6A12.77,12.77,0,0,0,623.94,413.92Z" transform="translate(-231.97 -284.25)"/><path class="cls-5" d="M707.43,391.59q0,12.74-5.63,20.2a18,18,0,0,1-15.09,7.47q-11.16,0-17.1-7.85v27.76h-6V363.83h5.59l.3,7.7q5.88-8.7,17-8.7,9.75,0,15.31,7.39t5.56,20.52Zm-6-1q0-10.41-4.27-16.45a13.78,13.78,0,0,0-11.92-6,15.85,15.85,0,0,0-15.59,10.41v26.1a15.9,15.9,0,0,0,6.19,7.14,17.76,17.76,0,0,0,9.5,2.47,13.65,13.65,0,0,0,11.84-6.06Q701.4,402.06,701.39,390.54Z" transform="translate(-231.97 -284.25)"/><path class="cls-5" d="M764.51,391.59q0,12.74-5.63,20.2a18,18,0,0,1-15.09,7.47q-11.16,0-17.1-7.85v27.76h-6V363.83h5.58l.3,7.7q5.88-8.7,17-8.7,9.76,0,15.32,7.39t5.55,20.52Zm-6-1q0-10.41-4.28-16.45a13.78,13.78,0,0,0-11.92-6,15.87,15.87,0,0,0-15.59,10.41v26.1a16,16,0,0,0,6.19,7.14,17.76,17.76,0,0,0,9.5,2.47,13.67,13.67,0,0,0,11.85-6.06Q758.47,402.06,758.48,390.54Z" transform="translate(-231.97 -284.25)"/><path class="cls-5" d="M821.59,391.59q0,12.74-5.63,20.2a17.93,17.93,0,0,1-15.09,7.47q-11.16,0-17.1-7.85v27.76h-6V363.83h5.58l.3,7.7q5.9-8.7,17.05-8.7,9.76,0,15.32,7.39t5.55,20.52Zm-6-1q0-10.41-4.27-16.45a13.81,13.81,0,0,0-11.92-6,15.87,15.87,0,0,0-15.6,10.41v26.1a16,16,0,0,0,6.19,7.14,17.78,17.78,0,0,0,9.51,2.47,13.65,13.65,0,0,0,11.84-6.06Q815.56,402.06,815.56,390.54Z" transform="translate(-231.97 -284.25)"/></svg>